<svg xmlns="http://www.w3.org/2000/svg" width="431.027" height="452.619" viewBox="0 0 431.027 452.619">
    <defs>
        <clipPath id="az9vv52nha">
            <circle data-name="Ellipse 333" cx="109.099" cy="109.099" r="109.099" transform="matrix(.163 -.987 .987 .163 0 215.278)" style="fill:none"/>
        </clipPath>
    </defs>
    <g data-name="Group 2118" transform="translate(-218.252 -136.554)">
        <ellipse data-name="Ellipse 328" cx="21.021" cy="36.41" rx="21.021" ry="36.41" transform="rotate(-89.689 467.029 -51.314)" style="fill:#3581d8"/>
        <ellipse data-name="Ellipse 329" cx="21.021" cy="36.41" rx="21.021" ry="36.41" transform="rotate(-89.71 440.763 130.573)" style="fill:#3581d8"/>
        <ellipse data-name="Ellipse 330" cx="26.9" cy="46.595" rx="26.9" ry="46.595" transform="rotate(-89.689 520.61 60.023)" style="fill:#3581d8"/>
        <ellipse data-name="Ellipse 331" cx="23.246" cy="40.264" rx="23.246" ry="40.264" transform="rotate(-89.689 362.495 91.078)" style="fill:#3581d8"/>
        <g data-name="Group 2157">
            <path data-name="Path 2070" d="m347.183 230.924-53.118-30.666a8.328 8.328 0 0 1-4.162-7.211v-52.3a4.188 4.188 0 0 1 6.283-3.628l53.114 30.67a8.327 8.327 0 0 1 4.162 7.21v52.3a4.188 4.188 0 0 1-6.279 3.625z" transform="translate(65.59)" style="fill-rule:evenodd;fill:#3581d8"/>
            <path data-name="Path 2071" d="m294.6 201.329-24.613-14.21a3.859 3.859 0 0 1-1.929-3.34v-24.235a1.941 1.941 0 0 1 2.911-1.682l24.615 14.21a3.859 3.859 0 0 1 1.929 3.34v24.236a1.942 1.942 0 0 1-2.913 1.681z" transform="translate(45.593 19.266)" style="fill-rule:evenodd;fill:#3581d8"/>
            <path data-name="Path 2072" d="m435.076 292.854-38.436-22.192a6.025 6.025 0 0 1-3.013-5.22V227.6a3.031 3.031 0 0 1 4.547-2.624l38.438 22.192a6.024 6.024 0 0 1 3.011 5.218v37.845a3.032 3.032 0 0 1-4.547 2.623z" transform="translate(160.539 80.564)" style="fill-rule:evenodd;fill:#3581d8"/>
            <path data-name="Path 2073" d="m394.077 243.351 51.856-29.938a8.13 8.13 0 0 0 4.067-7.039v-51.057a4.09 4.09 0 0 0-6.135-3.542l-51.856 29.94a8.128 8.128 0 0 0-4.065 7.037v51.058a4.09 4.09 0 0 0 6.133 3.541z" transform="translate(155.335 13.427)" style="fill-rule:evenodd;fill:#3581d8"/>
            <g data-name="Group 2120">
                <path data-name="Path 2074" d="m227.042 345.423 74.3-42.9a11.648 11.648 0 0 0 5.823-10.086v-73.149a5.86 5.86 0 0 0-8.79-5.074l-74.3 42.9a11.648 11.648 0 0 0-5.823 10.086v73.153a5.859 5.859 0 0 0 8.79 5.07z" transform="translate(0 70.364)" style="fill-rule:evenodd;fill:#3581d8"/>
                <g data-name="Group 2118">
                    <path data-name="Path 2075" d="M247.158 272.12a29.847 29.847 0 0 1-3.986 2.772c-6.811 3.93-12.8 3.4-16.3-.64l16.3-21.78z" transform="translate(7.893 106.112)" style="fill:#ec827d;fill-rule:evenodd"/>
                    <path data-name="Path 2076" d="M254.92 253.194c0 10.809-6.675 23.686-15.551 30.926l-3.986-19.648v-22.427c10.788-6.229 19.537-1.245 19.537 11.149z" transform="translate(15.682 94.111)" style="fill:#fbd15b;fill-rule:evenodd"/>
                    <path data-name="Path 2077" d="M244.725 240.763v22.427l-16.3 21.78c-2.057-2.364-3.249-5.928-3.249-10.494.002-12.389 8.752-27.476 19.549-33.713z" transform="translate(6.34 95.393)" style="fill:#56548c;fill-rule:evenodd"/>
                </g>
                <g data-name="Group 2119">
                    <path data-name="Path 2078" d="m274.464 234.064-26.229 14.683v-3.739l26.229-14.683z" transform="translate(27.447 85.839)" style="fill:#fff;fill-rule:evenodd"/>
                    <path data-name="Path 2079" d="m274.464 241.687-26.229 14.683v-3.74l26.229-14.683z" transform="translate(27.447 92.816)" style="fill:#fff;fill-rule:evenodd"/>
                    <path data-name="Path 2080" d="m274.464 249.309-26.229 14.683v-3.74l26.229-14.683z" transform="translate(27.447 99.794)" style="fill:#fff;fill-rule:evenodd"/>
                </g>
            </g>
            <g data-name="Group 2154">
                <g data-name="Group 2121" transform="translate(403.229 445.45)">
                    <ellipse data-name="Ellipse 332" cx="18.862" cy="32.67" rx="18.862" ry="32.67" transform="rotate(-89.689 25.71 25.57)" style="fill:#56548c"/>
                    <path data-name="Path 2081" d="m325.357 302.544-9.851 18.235 63.3 1.047-9.819-18.338z" transform="translate(-314.202 -293.501)" style="fill:#56548c"/>
                    <path data-name="Path 2082" d="M358.877 320.218c-8.836 5.1-23.2 5.074-32.093-.057s-8.935-13.429-.1-18.53 23.2-5.074 32.091.059 8.936 13.427.102 18.528z" transform="translate(-310.008 -297.823)" style="fill:#878cf0"/>
                    <path data-name="Path 2083" d="M352.053 316.278c-6.6 3.808-17.325 3.789-23.964-.042s-6.671-10.027-.075-13.837 17.325-3.789 23.964.044 6.671 10.027.075 13.835z" transform="translate(-307.261 -296.237)" style="fill:#bee1f4"/>
                </g>
                <path data-name="Path 2084" d="M355.373 347.218c.165-1.343-67.554-89.043-67.554-89.043h177.612l-76.2 89.536z" transform="translate(63.682 111.333)" style="opacity:.5;fill:#bee1f4"/>
                <g data-name="Group 2124">
                    <g data-name="Group 2123">
                        <g data-name="Group 2122">
                            <path data-name="Path 2085" d="M393.287 260.526s-13 15.191-16.469 16.21-.341 4.593 2.322 4.865 11.125-.088 13.592-2.513 9.439-5.018 9.439-5.018a39.3 39.3 0 0 0-1.885-12.827z" transform="translate(143.748 113.485)" style="fill:#606bf1;fill-rule:evenodd"/>
                            <path data-name="Path 2086" d="M382.877 205.721s-1.684 33.619-1.069 44.642 3.3 65.748 3.3 65.748c7.118 1.528 11.642 0 11.642 0 2.341-41.963 2.274-54.03 2.944-60.287s1.5-24.347 1.5-24.347c5.018-10.383-.232-23.9-2.706-27.151s-15.611 1.395-15.611 1.395z" transform="translate(149.597 60.982)" style="fill:#112b46;fill-rule:evenodd"/>
                            <path data-name="Path 2087" d="M397.381 268.476c-.437 6.145-2.657 13.385-3.218 17.068a8.725 8.725 0 0 0 1.609 6.957c.849 1.184 11.24-2.253 12.659-6.256s-1.49-7.508-1.714-15.015c-3.358-6.006-9.336-2.754-9.336-2.754z" transform="translate(160.906 119.958)" style="fill:#606bf1;fill-rule:evenodd"/>
                            <path data-name="Path 2088" d="M387.942 207.113s1.789 30.6 4.61 40.79 5.354 40.084 6.555 45.3 2.666 37.416 2.666 37.416a22.94 22.94 0 0 0 11.546 0c-.136-30.158.594-54.669 0-62.942s.236-32.784.236-32.784c2.678-11.41 2.837-12.868 0-20.447s-15.027-13.591-25.613-7.333z" transform="translate(155.335 62.2)" style="fill:#112b46;fill-rule:evenodd"/>
                            <path data-name="Path 2089" d="M407.386 167.951c-10.562 2.973-16.231 29.514-19.19 35.475s-27.614 7.447-27.614 7.447c-1.481 5.172 2.712 10.6 2.712 10.6 23.747-.986 32.125-2.959 36.527-12.328s19.852-38.001 7.565-41.194z" transform="translate(129.999 28.741)" style="fill:#112b46;fill-rule:evenodd"/>
                            <path data-name="Path 2090" d="M388.482 167.963c9.382-.414 31.125 4.463 38.285 13.6s-3.235 25.272-5.723 35 1.149 34.144 1.143 36.487c-11.113 7.37-37.881 8.3-40.886-2.687-1.241-11.962 1.5-26.163 1.647-33.159-.36-15.04-6.884-44.79 5.534-49.241z" transform="translate(148.904 28.73)" style="fill:#fff;fill-rule:evenodd"/>
                            <path data-name="Path 2091" d="M396.873 170.184c-6.041 21.2-7.461 45-6.874 54s.833 38.094.833 38.094c-7.026-3.7-10.108-10.479-10.108-13.561s2.645-29.413 2.561-31.531-3.547-26.287-2.561-37.136 8.094-12.1 8.094-12.1h9.041z" transform="translate(148.566 28.741)" style="fill:#112b46;fill-rule:evenodd"/>
                            <path data-name="Path 2092" d="M386.909 155.752c-4.132 1.3 0 10.7 0 10.7z" transform="translate(152.708 17.574)" style="fill:#56548c;fill-rule:evenodd"/>
                            <path data-name="Path 2093" d="M386.445 160.432s-1.557 5.5-.969 9.772.973 12.785 4.76 15.509 9.215-.439 12.81-3.49a21.359 21.359 0 0 0 7.489-15.492c.086-6.809-2.578-15.153-12.4-14.728s-11.69 8.429-11.69 8.429z" transform="translate(152.956 14.13)" style="fill:#ffc8af;fill-rule:evenodd"/>
                            <path data-name="Path 2094" d="M402.473 164.619s-.766 8.767 1.532 12c.165 2.157-6.016 11.3-12.172 9.7-3.584-.929-3.155-5.106-3.155-5.106a98.437 98.437 0 0 0 0-10.9z" transform="translate(155.995 25.691)" style="fill:#ffc8af;fill-rule:evenodd"/>
                            <path data-name="Path 2095" d="M384.9 155.729c-1.4 5.049.2 6.863 4.453 8.311s15.578-1.835 15.578-1.835c-.766 5.409.937 8.209.937 8.209 1.871-5.311 3.574-2.607 3.745 1.641s-2.212 4.153-2.212 4.153c.171 3.572 1.32 4.789 1.32 4.789 4.553-3.147 10.751-24.19 2.546-24.676-.126-7.346-23.375-11.405-26.367-.592z" transform="translate(152.095 11.491)" style="fill:#56548c;fill-rule:evenodd"/>
                            <path data-name="Path 2096" d="M402.076 170.155c-7.3 15.394-11.123 29.447-10.876 42.147s2.869 49.682 2.869 49.682c12.665-3.082 21.294-6.656 23.761-10.971-5.424-14.3-7.4-23.918-6.288-27.986s10.676-35.084 5.708-44.294c-4.722-5.142-15.174-8.578-15.174-8.578z" transform="translate(158.308 30.759)" style="fill:#112b46;fill-rule:evenodd"/>
                            <path data-name="Path 2097" d="M406.339 173.446c8.73 4.346 15.036 25.222 21.694 31.677 3.773 3.658 22.408 8.434 27.586 8.564 2.005 4.568-1.6 9.648-1.6 9.648-31.807-2.986-33.213-4.737-43-17.22-12.146-15.495-16.368-35.657-4.68-32.669z" transform="translate(165.857 33.5)" style="fill:#112b46;fill-rule:evenodd"/>
                        </g>
                        <path data-name="Path 2098" d="M401.245 169.084a17.968 17.968 0 0 0 1.628 2.051s-3.166 6.92-4.308 9.975a16.209 16.209 0 0 1-4.143 5.6l-4.1-4.478c5.652-2.989 10.923-13.148 10.923-13.148z" transform="translate(157.51 29.779)" style="fill:#fff;fill-rule:evenodd"/>
                        <path data-name="Path 2099" d="M429.021 196.044a31.891 31.891 0 0 1 7.734-1.165c3.327.082 6.654-1 7.321-.916s.416 2.578-4.16 3.16c3.827 1 7.072 1.664 9.317.916s2 2.329 0 4.407-5.241 2.413-7.485 2.662-11.063-1.414-13.724-2.5c-.916-5.15.997-6.564.997-6.564z" transform="translate(191.799 52.55)" style="fill:#ffc8af;fill-rule:evenodd"/>
                    </g>
                    <path data-name="Path 2100" d="M389.871 170.245c.375-.467 1.276 8.638 2.639 10.945a16.7 16.7 0 0 1-4.195 3.139s-1.566-10.192 1.556-14.084z" transform="translate(155.318 30.826)" style="fill:#fff;fill-rule:evenodd"/>
                    <path data-name="Path 2101" d="M392.179 175.854 388.674 178a21.032 21.032 0 0 1 .856 4.656h3.277l2.438-3.48z" transform="translate(156.005 35.976)" style="fill:#fbd15b;fill-rule:evenodd"/>
                    <path data-name="Path 2102" d="M391.22 179.689c-4.875 25.287-4.377 40.925-4.377 40.925l2.475 6.957 5.344-7.79s-3.871-29.708-.165-40.091c-2.031-1.33-3.277-.001-3.277-.001z" transform="translate(154.316 38.946)" style="fill:#fbd15b;fill-rule:evenodd"/>
                </g>
                <g data-name="Group 2126">
                    <path data-name="Path 2103" d="M272.438 187.649s16.336 11.554 23.178 15.386 33.569-11.211 33.569-11.211 3.632 1.866 2.034 7.663c-17.5 11.787-30.4 17.365-35.6 16.187s-20.9-10.381-26.218-13.212-4.242-15.485 3.037-14.813z" transform="translate(43.772 46.75)" style="fill:#ec827d;fill-rule:evenodd"/>
                    <g data-name="Group 2125">
                        <path data-name="Path 2104" d="M267.833 284.847c.331 4.727.768 9.451.768 9.451h1.05s0-7.146 1.119-5.643c-.156-3.892-2.937-3.808-2.937-3.808z" transform="translate(45.387 135.749)" style="fill:#112b46;fill-rule:evenodd"/>
                        <path data-name="Path 2105" d="M283.744 326.548c.506 0 1.189-.55 1.795-1.377-1.071-1.28-2.136-2.532-2.844-3.515-2.274-3.155-5.947-10.154-6.124-13.3s1.751-36.04 2.276-40.065 2.032-19.246 1.891-20.119-14.14 5.405-14.14 5.405c.176 1.243 2.069 9.115 1.3 14.189s-2 8.426-1.3 16.721 4.725 21.592 3.325 27.892c-.025.113-.044.213-.069.322 4.116 5.644 5.564 16.623 13.89 13.847z" transform="translate(44.066 102.098)" style="fill:#ffc8af;fill-rule:evenodd"/>
                        <path data-name="Path 2106" d="M284.241 294.291c-.605.827-1.289 1.377-1.795 1.377-8.326 2.775-9.774-8.2-13.891-13.848-1.3 5.988-.724 6.692.364 7.551 1.105.875 4.955 5.6 5.654 8.924s11.2 2.973 13.122 2.274c1.325-.484-1.083-3.449-3.454-6.278z" transform="translate(45.363 132.978)" style="fill:#112b46;fill-rule:evenodd"/>
                        <path data-name="Path 2107" d="M266.1 279.307c-.406 3.681-2.561 32.024-2.21 36.755.209 2.883 1.58 7.418 2.435 11.056.546 2.31.868 4.269.546 5.208-.839 2.421-.881 9.629-4.787 8s-6.509-6.646-5.71-12.2c.783-5.557-.155-8.23.069-11.548s-2-23.975-2.35-31.309c-.35-7.363 2.1-10.862 2.281-15.76.167-4.9-1.3-15.116-1.3-15.116s16.865-8.845 15.48 1.82-4.047 19.426-4.454 23.094z" transform="translate(32.779 104.72)" style="fill:#ffc8af;fill-rule:evenodd"/>
                        <path data-name="Path 2108" d="M251.511 225.406c-2.295 11.548 3.172 19.244 4.178 21.866s-2.2 35.339-2.2 35.339c8.866 13.647 39.839 5.25 44.91-3.323-.693-20.162-2.436-53.187-2.27-56.686s-44.618 2.804-44.618 2.804z" transform="translate(29.936 77.802)" style="fill:#56548c;fill-rule:evenodd"/>
                        <path data-name="Path 2109" d="M266.527 296.186c-.262 4.926-1.574 9.366-5.48 7.742s-6.509-6.646-5.71-12.2c2.1 6.129 10.119 5.863 9.951-1.009.546 2.307 1.291 4.481 1.239 5.467z" transform="translate(33.816 141.121)" style="fill:#112b46;fill-rule:evenodd"/>
                    </g>
                    <path data-name="Path 2110" d="M270.98 167.8c5.336 5.085 7.112 9.521 6.336 14.513s-1.664 11.312.887 13.2c-5.434 4.214-15.723-1.885-15.515-2.994s5.725-17.191 6.238-17.3z" transform="translate(40.675 28.604)" style="fill:#56548c;fill-rule:evenodd"/>
                    <path data-name="Path 2111" d="M288.877 189c-11.422-5.723-31.047-2.41-38.716 6s8.449 23.981 11.115 32.943-15.716 34.1-9.654 41.8c11.9 6.79 46.205 2.159 49.423-7.968-.119-15.024-9.091-28.174-6.953-34.412.113-4.007 5.854-17.08 3.555-22.131-4.69-10.295-3.671-13.086-8.77-16.232z" transform="translate(27.333 45.396)" style="fill:#d16565;fill-rule:evenodd"/>
                    <path data-name="Path 2112" d="M280.2 175.38s1.557 5.5.971 9.772-.973 12.785-4.76 15.509-9.215-.439-12.81-3.49a21.36 21.36 0 0 1-7.491-15.492c-.084-6.809 2.578-15.153 12.4-14.726s11.69 8.427 11.69 8.427z" transform="translate(34.655 27.815)" style="fill:#ffc8af;fill-rule:evenodd"/>
                    <path data-name="Path 2113" d="M260.568 181.5s.636 8.769-1.272 12c-.136 2.155 5 11.3 10.1 9.7 2.977-.931 2.618-5.108 2.618-5.108-.318-3.189 0-10.895 0-10.895z" transform="translate(37.57 41.147)" style="fill:#ffc8af;fill-rule:evenodd"/>
                    <path data-name="Path 2114" d="M273.912 175.245a12.621 12.621 0 0 1-8.15 8.648c-1 9.317 1.2 15.925 4.216 17.38-8.133 2.954-12.854.691-15.074-3.68s-3.948-23.016 5.2-28.672 13.808 6.324 13.808 6.324z" transform="translate(31.933 28.242)" style="fill:#56548c;fill-rule:evenodd"/>
                    <path data-name="Path 2115" d="M268.276 176.26c2.829 3.825 9.085 3.992 10.115 3.825-.134-14.806-14.44-16.3-19.1-10.979 3.829 7.319 8.985 7.154 8.985 7.154z" transform="translate(37.569 27.227)" style="fill:#56548c;fill-rule:evenodd"/>
                    <path data-name="Path 2117" d="M259.52 222.3c.559-.249-2.772-26.611-2.772-26.611l23.226-4.6 1 40.706-21.074 4.93z" transform="translate(35.24 49.923)" style="fill:#fff;fill-rule:evenodd"/>
                    <path data-name="Path 2118" d="M264.671 208.379s7.4-7.219 9.047-8.882 1.622.567-.506 4.442c3.337.783 5.474 5.256 5.712 6.821s-4 5.6-5.206 6.078-6.152 0-6.152 0z" transform="translate(42.492 57.11)" style="fill:#ffc8af;fill-rule:evenodd"/>
                    <path data-name="Path 2119" d="M255.11 189.83c6.338.454 7.359 34.759 7.359 34.759s17.35-8.068 18.555-7.859c6.43 1.4 2.894 8.458 2.894 8.458-13.58 10.314-19.07 16.243-25.7 14.967s-11.64-24.985-11.4-35.674 4.277-14.936 8.292-14.651z" transform="translate(26.14 48.758)" style="fill:#ec827d;fill-rule:evenodd"/>
                </g>
                <g data-name="Group 2144">
                    <g data-name="Group 2127">
                        <path data-name="Path 2120" d="M493.176 274.281a108.988 108.988 0 0 1-106.858 109.082c-.749.012-1.5.023-2.247.023s-1.5 0-2.247-.023a109.1 109.1 0 1 1 111.352-109.082z" transform="translate(51.928 26.213)" style="fill:#85cded"/>
                    </g>
                    <g data-name="Group 2128">
                        <path data-name="Path 2121" d="M484.617 258.614a109.16 109.16 0 0 1-101.066 73.91c-.749.012-1.5.023-2.247.023s-1.5 0-2.247-.023A109.134 109.134 0 0 1 278 258.614c14.638-22.044 55.355-37.887 103.3-37.887s88.679 15.842 103.317 37.887z" transform="translate(54.695 77.053)" style="fill:#8fd7ef"/>
                    </g>
                    <g data-name="Group 2143">
                        <g data-name="Group 2142" style="clip-path:url(#az9vv52nha)" transform="translate(310.571 175.068)">
                            <g data-name="Group 2134">
                                <g data-name="Group 2129">
                                    <path data-name="Path 2122" d="M273.313 253.238c-.192-17.524 11.443-33.954 32.761-46.261 43.577-25.159 114.706-25.032 158.559.285 21.255 12.272 33.064 28.593 33.253 45.956l-1.167.011c-.186-16.934-11.787-32.9-32.671-44.956-43.531-25.132-114.137-25.26-157.393-.285-20.935 12.086-32.363 28.153-32.177 45.238z" transform="translate(-260.17 -127.799)" style="fill:#bee1f4"/>
                                </g>
                                <g data-name="Group 2130">
                                    <path data-name="Path 2123" d="M323.218 370.307a41.083 41.083 0 0 1-20.277-5.055l.569-1.019c14.616 8.16 34.033 6.087 54.671-5.827 43.148-24.914 78.254-85.462 78.254-134.973 0-24.925-9.144-43.579-25.086-51.183l.5-1.053C428.217 179 437.6 198.041 437.6 223.434c0 49.883-35.366 110.885-78.836 135.982-12.526 7.235-24.633 10.891-35.546 10.891z" transform="translate(-233.045 -143.355)" style="fill:#bee1f4"/>
                                </g>
                                <g data-name="Group 2132">
                                    <g data-name="Group 2131">
                                        <path data-name="Path 2124" d="M405.005 370.307c-10.91 0-23.017-3.657-35.546-10.891-43.472-25.1-78.836-86.1-78.836-135.982 0-25.393 9.386-44.432 25.751-52.237l.5 1.053c-15.942 7.6-25.086 26.258-25.086 51.183 0 49.511 35.1 110.059 78.254 134.973 20.64 11.916 40.059 13.986 54.671 5.827l.569 1.019a41.085 41.085 0 0 1-20.277 5.055z" transform="translate(-244.322 -143.355)" style="fill:#bee1f4"/>
                                    </g>
                                </g>
                                <g data-name="Group 2133">
                                    <path data-name="Path 2125" d="M385.439 312.863c-61.73 0-111.952-40.7-111.952-90.717h1.168c0 49.377 49.7 89.549 110.783 89.549s110.783-40.172 110.783-89.549h1.168c.001 50.021-50.221 90.717-111.95 90.717z" transform="translate(-260.008 -96.716)" style="fill:#bee1f4"/>
                                </g>
                            </g>
                            <g data-name="Group 2135">
                                <path data-name="Path 2126" d="M346.109 374.6c1.592-.32-.159-3.023 2.7-2.7s9.861 2.494 12.724.611-1.91-4.11 1.431-5.064 6.5-2.682 7-4.771.636-3.5-1.91-3.976-5.089-3.181-7.315-3.817-6.2-.318-8.589-1.749-8.112-6.2-10.339-6.363-7 0-4.612-.795 4.135-.636 3.023-1.749-3.817-6.363-5.725-7.794-7.158-2.7-9.543-5.725-5.568-9.862-5.568-9.862-6.838-1.908-9.225-4.93-4.771-6.043-6.2-6.361-2.7-1.433-3.658-1.592-1.59 1.433-2.7 2.069-2.226-2.069-2.862-4.135-2.864-1.272-3.817-3.022-1.91-5.248-1.751-6.361 1.91-4.771 1.433-6.522-3.182-3.658-3.976-5.407 1.113-4.93 2.226-6.52 2.387-1.91.795-3.34-3.557-1.592-3.21 0-1.4 2.027-2.674-1.134-1.749-10.636.795-13.5.956-6.52 3.817-5.884 3.5 2.864 4.135 5.089 1.91 2.7 1.751-.477c3.021 3.658 2.862 5.725 3.339 6.2s1.115.477 1.115 1.431-.8 5.089-.638 7.317 0 4.294.956 3.976 1.749-4.614 1.749-7.317.636-5.566 2.067-5.725 2.864-1.592 4.614-1.274 4.133-.636 4.612-2.385 6.043-6.985 7.633-6.913 3.023 2.3 4.453 1.982-.266-3.976 2.333-4.294 5.143-1.115 5.62 0-3.181 1.749-2.067 2.544 3.18-.636 4.612-.477 5.407 1.431 5.566-.159.477-3.532-.795-2.482-1.113 2.482-2.069 1.211-2.067-1.481-1.749-3.365 2.7-3.793 2.067-4.269-4.135-.636-4.612-1.272 1.433-2.546 4.135-1.91 4.294 2.864 6.045 2.7 4.294-2.7 4.294-.954-3.182 4.245-3.658 5.7.318 2.251 2.544 2.888 2.069 2.862 3.34 2.226 2.069-5.407.636-6.2-3.18 1.908-2.067-1.433 3.5-3.815 2.544-6.838-2.862-6.522-2.862-7.794 1.431-7.953 1.431-7.953-2.067 2.387-3.5 1.91-2.385-1.433-1.59-2.546 2.7-3.023 2.226-3.181a1.85 1.85 0 0 1-1.113-1.749c0-.954-.954-2.069-1.431-2.7s-.477-1.59-1.272-1.431-2.069 2.228-2.546 3.5-3.182 1.59-3.182 2.7.318 4.294-2.385 4.773-4.135 0-4.612.795-2.494 5.566-3.553 5.248-.531-2.228 0-4.294 2.438-1.59 2.12-3.658-1.431-1.113-1.113-3.023-1.379-4.612-1.008-5.407 1.961-.954 1.8-2.226.318-5.091 3.5-5.248 9.384-1.274 10.655-1.91a2.886 2.886 0 0 1 3.022 0c.636.477.636.433 2.069-.419s6.043-3.4 6.679-2.762 0 4.294-1.431 5.727-2.387 3.339-3.5 3.021-3.976-2.067-3.182-.795 2.864 1.749 2.864 2.7-.795 4.93.318 5.566 1.272-2.228 1.749-2.385.159 3.339 1.274 2.226 1.59-4.294 1.749-5.566-.636-1.592.159-1.274 0 3.5 1.433 3.5 4.612-.477 3.339-2.226-1.908-4.612-1.431-4.93a2.188 2.188 0 0 0 1.272-1.751c0-.954 1.592-5.407-.636-6.043s-3.5.795-2.226-.636a8.963 8.963 0 0 0 1.749-3.34s-3.34-.477-5.089 1.59-1.272 2.7-1.751 3.023-3.815 2.546-4.294 1.749 2.7-2.544 3.022-3.021 1.751-4.453 2.228-4.612-5.25 2.7-6.681 3.974-4.135 1.751-3.817 1.274 8.271-3.817 6.363-4.453-5.409 2.226-6.045.954 1.115-.49.477-1.756-2.862.644-2.385-1.584-.477-2.7.954-2.862 1.59-1.433 2.7-3.34 1.272-7 2.544-7.158 10.021-4.612 10.816-6.52 3.658-3.658.477-3.023-6.045 1.749-5.566 1.113.159-2.333-2.546-1.245-11.611 3.632-12.088 5.221 1.115 1.751-4.453 5.407-10.337 8.748-12.883 10.339-2.226 3.339-4.453 4.294-2.7.318-4.612 2.7-9.384 7.635-10.814 9.862-9.066 11.45-13.519 23.856-7 24.176-6.84 27.038-.318 13.519.954 15.429a18.74 18.74 0 0 1 2.7 8.112c.318 3.18 2.864 4.93 3.658 6.838s.318 6.2.477 7.476 3.976 8.271 4.294 9.384.954-1.272 1.59 0a18.6 18.6 0 0 1 2.069 7.794c0 3.339-4.294 3.5-3.182 6.52s11.77 20.677 16.224 27.038 16.222 16.7 19.721 18.769z" transform="translate(-254.539 -144.543)" style="fill:#bee1f4"/>
                                <path data-name="Path 2127" d="M299.81 242.144c.335 1.9-8.349-3.34-8.826-4.89s3.817 2.266 3.339.6-1.908-3.1-.954-3.341 6.083 5.603 6.441 7.631z" transform="translate(-244.026 -85.404)" style="fill:#bee1f4"/>
                                <path data-name="Path 2128" d="M295.786 240.31c-1.381-.571-4.294-1.075-3.817-2.982s-2.624-7.277-3.459-8.349-2.864-2.505-1.908-2.745 2.266 1.433 3.936 3.34 5.367 8.589 6.083 9.543 1.923 2.331-.835 1.193z" transform="translate(-248.232 -92.994)" style="fill:#bee1f4"/>
                                <path data-name="Path 2129" d="M327.849 221.087c.063-1.243 1.075-2.743-.714-2.864s-3.341 4.892-3.222-3.1.557-11.213 2.069-12.048 1.327-1.908 2.074-3.34-.921-1.908.509-4.89.477-5.725 0-7.4.954-3.34 3.7-4.176 5.009-.716 7.156-1.193 1.789-2.266 3.7-1.312 2.743 4.294 4.413 2.982 2.387-.477 1.91.716-1.26 2.624.144 4.055.929 3.58 1.287 5.965-2.266.358-2.505 1.91 1.91 2.228 2.505 4.394.6 4.195-1.789 4.79-6.2-1.193-7.039.477-3.015 3.578-4.49 4.771-1.473-.358-2.666 1.551-4.664 7.635-5.315 8.23-1.792 1.779-1.727.482z" transform="translate(-213.854 -134.846)" style="fill:#bee1f4"/>
                                <path data-name="Path 2130" d="M315.839 187.913c-.925 1.41-3.459.121-2.982-1.789s-1.668-4.055 1.193-4.532 2.864 1.312 3.936-.6a6.355 6.355 0 0 1 2.982-2.624s3.58-2.862 2.745-.356-6.777 8.233-7.874 9.901z" transform="translate(-224.269 -138.055)" style="fill:#bee1f4"/>
                                <path data-name="Path 2131" d="M324.2 185.92c-1.341-.224-3.817-1.193 0-2.387s8.947-5.488 11.213-4.653.956 3.183.956 3.183-8.591 4.453-12.169 3.857z" transform="translate(-215.451 -136.418)" style="fill:#bee1f4"/>
                                <path data-name="Path 2132" d="M342.63 201.534c-4.459 1.858-6.016-5.965-4.082-5.488s3.6-1.908 5.752-.238 1.194 4.533-1.67 5.726z" transform="translate(-201.199 -121.376)" style="fill:#bee1f4"/>
                                <path data-name="Path 2133" d="M348.591 187.044c-4.405-1.81-6.083-2.862-5.725-3.7s-.716-5.062 1.908-2.233 4.487 6.209 3.817 5.933z" transform="translate(-196.542 -135.157)" style="fill:#bee1f4"/>
                                <path data-name="Path 2134" d="M457.679 275.774c0-.592-1.555-1.069-2.147 1.793s1.069 6.8-1.793 5.955-4.17-3.34-5.248-4.771a41.856 41.856 0 0 0-2.739-3.216c-1.555-1.785-5.126-5.124-4.17-6.079s.477-1.678 2.737-.247 5.965 4.065 6.2 5.5 1.335 6.8 3.1 5.725.954-9.792.716-11.929c-.239-2.157.238-12.052-.354-14.563s-1.793-5-2.509-5.124-1.078.716-.716 2.624 1.91 5.716.115 3.635-4.771-5.066-3.693-5.306 1.431 2.262 1.67 0-.477-4.532.839-3.817-2.634-12.758-2.747-15.268-13.285-38.048-58.412-57.257-55.263-5.011-55.263-5.011c-.6.954-6.928 2.749-7.4 4.057s-.956 1.078-2.864 1.306c-1.908.249-6.317.954-2.739 1.2 3.578.228 15.03-2.634 20.165-3.111s7.508.477 10.849.839 11.433.477 11.433.477-1.27 3 2 2.691a6.5 6.5 0 0 1 5.172 1.366c1.078.6-1.431 1.078-.954 1.67s3.58.714 8.464 3.93 6.93 1.795 8.476 2.157-4.886.354-2.147 2.5 9.066 3.607 9.188 5.38-.724 4.677.354 6.089a41.978 41.978 0 0 1 3.216 6.07c1.316 2.615 6.2 5.363 2.157 5-4.066-.354-6.681-.592-5.02-1.433 1.68-.829 2.634-3.568.249-3.091s-10.621.592-11.577 1.431.477 2.864 1.308 6.8.6 5.133.125 9.78-.354 4.39.829 7.443c1.2 3.055 3.7 4.838 4.179 3.77s-.714-5.038 1.795-3.77 4.17 4.246 5 4.963 2.27 1.308 2.634 0-2.387-6.327-2.034-7.28-1.306-2.387-1.306-2.387a7.307 7.307 0 0 1-2.749-3.568c-.477-2.032-.115-1.68-1.069-3.7s-2.032-4.294-1.078-4.294 1.555.592 2.387 3.454 1.555 3.34 2.147 3.942a6.713 6.713 0 0 0 4.179 1.431c1.184-.237 1.069-3.34 2.739-2.862s-2.147 2.138-1.308 3.693 4.294 3.226 4.17 3.94-3.1-1.078-2.862.124c.238 1.184 2.27 3.57 2.862 4.409s.354 3.578-.829 3.1c-1.2-.477-1.2-3.1-2.032-.716s-.354 3.34-1.67 3.932-.239 0-1.318.6-2.739 1.308-3.568 0 0-1.908-1.078-3.1-2.147-3.226-2.262-1.795a3.916 3.916 0 0 0 .954 3.465c1.069 1.431 2.387 2.26 2.138 3.463-.228 1.184-2.5 1.308-2.862 3.932s.477 2.5-.477 3.817-.956 1.316-.956 2.5a4.623 4.623 0 0 1-1.306 3.044c-.6.544-2.147-1.373-1.785 0s1.431 1.852.23 2.2c-1.184.362-4.047.362-3.341 1.078a6.226 6.226 0 0 0 3.463 1.308c.956 0 2.147 1.793 2.864 2.862a7.462 7.462 0 0 1 .954 4.294c-.238.841-5.486 2.272-7.156 2.749s-2.624.477-2.739 1.318a9.563 9.563 0 0 0 1.184 4.647c.954 1.91-.707 2.986-.115 4.17.592 1.2 1.908 2.272 1.431 3.34s1.433-.23 3.455.6 1.316 2.509 2.986 1.555.352-1.908 1.785-2.272 2.986.477 3.111-.839 2.138-4.886 1.908-5.248c-.247-.354-1.908-.354-1.078-1.91a43.817 43.817 0 0 0 2.863-6.432c0-.6-2.147-2.986 0-3.226s2.032.477 2.863-.477 1.078-5.133 3.216-4.656c2.157.477 3.34 2.272 5.373 2.509s5.248.831 6.2 2.387-.829 4.417-.829 4.417-1.91.831-1.318 1.308 3.7.954 3.7.477-1.793-1.193-.954-2.032 1.308-3.568.954-4.17-2.509-1.308-1.316-1.785 2.624.23 2.27-.726-2.862-1.659-4.064-1.783c-1.184-.125-3.091-.239-4.17-.954s-2.387-1.193-2.624-2.034-2.147-2.986-.477-2.682 2.977 1.728 4.532 1.852S419.26 258 419.2 258.6s-.772 1.316 1.021 2.272 3.34 2.023 3.817 2.977 1.318 2.863 1.795 1.318.115-3.113.23-4.066-4.649-2.023-3.341-2.739 1.793-.716 1.68-1.555-.6-3.463 1.306-1.728 3.1 4.838 4.9 4.838 1.546-.247 1.908-1.431c.354-1.2.354-1.431 1.785-1.555s.716-4.647 1.91-3.34 3.693 7.872 3.815 9.782-2.26 2.272-2.862 3.7-1.078 3.932-3.942 4.17-3.93 0-4.771 1.91.6 3.015-.115 5.085-.714 2.787-2.749 2.071-3.453.954-3.693-.352-3.216 2.023-4.771 1.661-.829-.956-2.147-1.308-.362-.8-.592-2.071c-.247-1.27-2.157-2.825-1.555-3.3s-.237-1.783-1.193-.954.24 1.078-2.023 2.157-3.587 1.1-4.771 2.1c-1.2.992-.362 1.117-2.385 1.833s-2.988.113-2.988 1.316c0 1.184-.954 2.023-2.624 3.091s-.954 1.557-2.5 1.91-2.863-.115-3.589 0c-.7.125-2.385.125-2.26 1.316s-.239 3.932-1.308 4.658c-1.078.7-1.431 0-1.908 2.385s.228 2.138.352 3.932a6.584 6.584 0 0 1-2.864 5.61c-1.908 1.069-3.262-.6-3.3 1.433s-.994 2.862-1.709 3.93-.841 1.193-.592 3.341c.228 2.147-2.749 2.5-3.225 4.771s-1.069 2.387-.362 3.817c.724 1.431 1.908 2.272 1.431 4.886-.477 2.634-1.308 3.7-1.661 5.133s1.069 3.226 1.184 5.011 2.272 1.67 3.463 3.216 3.1 1.318 3.693 2.749 2.157 1.316 3.589 2.147 1.783 2.509 5.6 1.783c3.817-.7 3.58-2.26 6.442-2.737s2.863-1.193 6.441-2.387 4.294-4.17 6.8-5.009 3.216-1.318 4.524-.716-2.138 2.862.6 1.67 2.863-3.226 5.124-2.978c2.272.23 1.2.592.726 2.864s-2.986 5.248-2.157 5.84 3.7.954 4.419 2.272-1.67 2.023-.831 3.568 1.546 1.68.354 2.387c-1.193.724-4.4 6.279-5.488 7.757s-.841 3.1 1.069 3.465 34.717-47.008 37.58-59.167c2.867-12.182 1.197-26.973 1.197-27.565zm-27.072-30.06c-2.634.714-.6 4.436-1.555 5.009-1.392.841-4.419 2.387-5.011-1.668s-3.93-10.5-1.546-8.953 1.776 4.543 2.854 2.272 2.749-3.226 1.555-3.34-1.565 2.147-1.555-.477-.963-5.133 0-3.7-.239 3.465 2.749 3.465 4.771-1.078 5.124 1.431-.001 5.247-2.616 5.961zm9.658-7.872c-1.869 0-2.023-3.34-4.534-3.942s-5.009-.707-5.6-4.045-1.91-7.635-.726-6.681c1.2.954 2.272 4.448 2.634 4.486s2.729 1.354 2.559.877 1.613-1.546 2.09-.362c.477 1.2.237 2.128.714 2.795s2.978 2.7 3.7 3.475c.708.77.832 3.396-.838 3.396z" transform="translate(-218.433 -150.525)" style="fill:#bee1f4"/>
                                <path data-name="Path 2135" d="M354.951 220.486c.132.352.954-2.624 3.459-3.222s3.181-.954 2.546-2.026-1.115-.6-.875-1.67-2.505-1.91-2.982-2.745-1.789-1.908-2.147-2.5-1.789-.6-1.91-1.433 1.312-2.862 0-2.862-2.385.714-2.385 0 .477-3.363-.835-1.8-.6 2.873-.6 3.708 1.549 2.743 1.431 3.1.358-1.789.716-1.073-.239 1.789.477 1.67 2.266-.121 2.385.477 1.025 1.55.87 1.908-1.347.716-1.228 1.075.477.6.477 1.191-.954 1.67-.477 1.791 1.981-1.193 1.228.237a5.5 5.5 0 0 0-.15 4.174z" transform="translate(-190.855 -115.397)" style="fill:#bee1f4"/>
                                <path data-name="Path 2136" d="M349.37 213.971c-1.042-.232-.358-2.266-.239-3.1s-1.431-.6-1.431-2.028 1.91-.238 1.67-1.312.6-.826 1.551-.889 1.191 1.724 1.55 2.44 1.075 1.073 0 2.026-2.026 3.102-3.101 2.863z" transform="translate(-192.073 -110.911)" style="fill:#bee1f4"/>
                                <path data-name="Path 2137" d="M366.28 221.272c-1.3-.481-1.789-2.98-1.55-3.459s2.385-1.431 2.624.6 1.194 3.694-1.074 2.859z" transform="translate(-176.538 -101.273)" style="fill:#bee1f4"/>
                                <path data-name="Path 2138" d="M323.311 185.58c-1.113-.559-3.936-2.105-2.982-2.961s3.1-2.287 2.982-.617 1.676 4.419 0 3.578z" transform="translate(-217.307 -134.171)" style="fill:#bee1f4"/>
                                <path data-name="Path 2139" d="M320.095 182.877c-1.49.425-3.348.736-3.467 0s1.073-1.929 2.028-1.929 2.791 1.542 1.439 1.929z" transform="translate(-220.524 -134.428)" style="fill:#bee1f4"/>
                                <path data-name="Path 2140" d="M362.879 184.669c-1.373 1.373-2.387.714-3.222 0s-5.965-3.58-7.754-4.653-3.7-2.651-3.578-2.936a2.369 2.369 0 0 1 2.743.67c.716 1.073 5.606 3.578 7.635 4.413s5.488 1.194 4.176 2.506z" transform="translate(-191.505 -138.149)" style="fill:#bee1f4"/>
                            </g>
                            <g data-name="Group 2141">
                                <g data-name="Group 2136">
                                    <path data-name="Path 2141" d="M386.3 287.188c-28.831 0-57.719-6.359-79.734-19.072-21.257-12.272-33.066-28.593-33.255-45.956l1.166-.012c.184 16.934 11.787 32.9 32.671 44.956 43.529 25.132 114.135 25.26 157.393.285 20.935-12.086 32.363-28.153 32.177-45.238l1.166-.011c.191 17.524-11.443 33.954-32.761 46.261-21.696 12.53-50.23 18.787-78.823 18.787z" transform="translate(-260.169 -96.721)" style="fill:#fff"/>
                                </g>
                                <g data-name="Group 2137">
                                    <path data-name="Path 2142" d="M314.219 367.123c-15.216-8.493-23.6-26.651-23.6-51.124 0-49.883 35.364-110.885 78.836-135.982 19.907-11.494 38.967-13.963 53.67-6.949l-.5 1.053c-14.346-6.842-33.02-4.388-52.584 6.907-43.15 24.912-78.254 85.46-78.254 134.971 0 24.033 8.167 41.827 23 50.105z" transform="translate(-244.322 -145.226)" style="fill:#fff"/>
                                </g>
                                <g data-name="Group 2138">
                                    <path data-name="Path 2143" d="m412.977 367.123-.569-1.019c14.831-8.278 23-26.072 23-50.105 0-49.511-35.106-110.059-78.254-134.971-19.566-11.3-38.239-13.747-52.584-6.907l-.5-1.053c14.7-7.012 33.763-4.545 53.67 6.949 43.47 25.1 78.836 86.1 78.836 135.982-.003 24.473-8.383 42.631-23.599 51.124z" transform="translate(-232.016 -145.226)" style="fill:#fff"/>
                                </g>
                                <g data-name="Group 2139">
                                    <path data-name="Rectangle 664" style="fill:#fff" d="M0 0h1.167v222.736H0z" transform="translate(124.846 14.062)"/>
                                </g>
                                <g data-name="Group 2140">
                                    <path data-name="Path 2144" d="M497.39 265.5h-1.168c0-49.379-49.7-89.549-110.783-89.549S274.655 216.122 274.655 265.5h-1.168c0-50.023 50.222-90.717 111.952-90.717S497.39 215.479 497.39 265.5z" transform="translate(-260.009 -140.072)" style="fill:#fff"/>
                                </g>
                            </g>
                        </g>
                    </g>
                </g>
                <g data-name="Group 2146">
                    <g data-name="Group 2145">
                        <path data-name="Path 2145" d="M284.105 363.8v1.488c2.975 1.743 9.64.82 11.383 0 1.147-1.735 4.256-1.276 6-.586 6.666.586 9.1-.4 11.331-2.028 1.128-.826 3.151-2.977 2.908-5.258-7.932 1.82-31.622 6.384-31.622 6.384z" transform="translate(60.282 202.176)" style="fill:#606bf1;fill-rule:evenodd"/>
                        <path data-name="Path 2146" d="M295.858 354.724s7.282 2.051 11.59 2.666 7.384-.1 8.409 1.437-1.23 5.537-5.024 6.871-11.59-.2-14.461.41-10.154 1.946-11.9.153 0-10.51 0-10.51z" transform="translate(59.912 199.714)" style="fill:#56548c;fill-rule:evenodd"/>
                        <path data-name="Path 2147" d="m268.986 357.149 13.029-14.588c5.195-1.484 10.659-1.795 9.964 3-.615 4.256-7.39 6.116-12.048 10.253l-4.294 3.814c-3.088 2.741-7.032.343-6.65-2.48" transform="translate(46.419 187.694)" style="fill:#56548c;fill-rule:evenodd"/>
                        <path data-name="Path 2148" d="M315.928 263.859c2.846-1.741 6.6-5.641 7.83-8.713a26.3 26.3 0 0 0 2.3-8.278 13.2 13.2 0 0 0-1.806-7.336 1.381 1.381 0 0 0-.408-.487c-.646-.419-1.406.326-1.818.977-2.323 3.689-4.407 7.811-7.321 11.058a14.861 14.861 0 0 1 1.224-3.877c.939-1.919-.7-1.852-.7-1.852-1.1.7-4.264 5.827-4.714 7.732s-1.594 6.8-1.594 6.8l.6.538c-.475.674-.787 1.088-.787 1.088s5.243 3.54 7.194 2.35z" transform="translate(82.828 93.71)" style="fill:#ffc8af;fill-rule:evenodd"/>
                        <path data-name="Path 2149" d="M273.986 258.175s-18 6.543-3.978 25.1z" transform="translate(42.486 111.333)" style="fill:#112b46;fill-rule:evenodd"/>
                        <path data-name="Path 2150" d="M279.363 239.4c3.869-.632 9.144-.753 12.879.35 6.284 1.856 9.719 5.873 11.236 11.835 1.53 6.011 1.979 16.03-1.461 21.613-2.151 3.492-6.941 2.835-10.364 1.927-4.137-1.1-9.548-2.881-12.942-5.444-4.725-3.572-7.225-11.387-7.514-17.039-.249-4.869 2.268-12.278 8.167-13.243" transform="translate(48.45 93.71)" style="fill:#ffc8af;fill-rule:evenodd"/>
                        <path data-name="Path 2151" d="M277.008 254.316a12.759 12.759 0 0 0 1.609 1.473 29.414 29.414 0 0 0 10.757 5.252c.659.174 1.373.329 2.107.458l-.331 3.77c-4.4 1.207-8.669-.651-11.707-1.5-2.264-.626-5.773-1.2-5.773-3.584l3.33-5.873z" transform="translate(50.729 107.796)" style="fill:#ffc8af;fill-rule:evenodd"/>
                        <path data-name="Path 2152" d="M274.561 242.6c-3.768 2.5-3.584 8.539-3.384 12.486.289 5.65 2.89 13.113 7.616 16.685 2.611 1.971 2.728 2.2 6.227 3.287a19.862 19.862 0 0 0 2.019-1.366 5.721 5.721 0 0 0 2.163-6.254c-.7-2.277-.774-5.009.515-5.71 2.105-1.151 3.511 2.936 3.511 2.936a3.12 3.12 0 0 0 2.044-4.277 7.245 7.245 0 0 1 0-4.978c3.731.073 5.469-5.011 6.648-5.673 2.521-1.417 3.365-1.982 2.961-4.377a7.4 7.4 0 0 0-2.072-4.214c-1.316-1.228-5.75-2.911-7.5-3.348-10.372-2.597-18.369-.746-20.748 4.803z" transform="translate(48.367 91.621)" style="fill:#606bf1;fill-rule:evenodd"/>
                        <path data-name="Path 2153" d="m275.679 357.76 4.294-3.814c4.658-4.137 11.433-6 12.048-10.253V343.652a4.585 4.585 0 0 1-.008 1.438c-.615 4.256-7.39 6.116-12.048 10.253l-4.294 3.814c-3.641 3.231-7.484.927-6.65-3.861-.381 2.823 3.563 5.221 6.65 2.48" transform="translate(46.376 189.564)" style="fill:#606bf1;fill-rule:evenodd"/>
                        <path data-name="Path 2154" d="M269.807 299.858c-4.5 6.369 6.75 24 3.674 45.945-2.086 14.885-6.154 39.871-5.181 53.97.176 2.57 10.219 4.407 12.94-8.025 4.63-21.14 10.429-34.332 12.469-50.733l-1.082-47.573z" transform="translate(45.678 143.615)" style="fill:#717bdb;fill-rule:evenodd"/>
                        <path data-name="Path 2155" d="M276.564 295.582c-1.243 19.767 12.919 43.955 11.983 59.912-.967 16.457.824 36.467.87 54.279 0 0 14.547 6.89 15.2-3.758 2.138-34.891 8.818-45.763-.2-109.605z" transform="translate(53.308 145.575)" style="fill:#878cf0;fill-rule:evenodd"/>
                        <path data-name="Path 2156" d="M312.83 311.913a203.351 203.351 0 0 0-3.046-37.812 26.01 26.01 0 0 0-6.212-6.332l-4.654-5.635a166.63 166.63 0 0 1-17.409-5.288l-8.437 2.547c-6.867 2.91-9.131 11.793-6.074 20.66-.075.4 6.982 20.529 7.773 27.98.073.732-5.2 20.489-6.361 28.547 0 0 5.018 4.587 6.405 5.744 10.207 12.667 43.566-2.693 44.822-9.435.469-2.523-3.63-10.361-6.807-20.976z" transform="translate(43.4 110.115)" style="fill:#56548c;fill-rule:evenodd"/>
                    </g>
                    <path data-name="Path 2157" d="M289.237 294.246c-6.744.165-12.615-8.819-8.932-14.471 1.31-2.013 2.532-3.693 4.783-4.338 5.57-1.6 22.15 2.256 32.723 2.521 8.458-10.309 17.817-28.649 17.817-28.649 6.608.439 8.458 5.2 8.458 5.2-14.274 36.741-18.966 37.3-19.759 38.153s-35.017 1.582-35.09 1.584z" transform="translate(55.763 103.217)" style="fill:#56548c"/>
                </g>
                <g data-name="Group 2148">
                    <path data-name="Path 2158" d="M383.625 362.766v1.488c-2.975 1.743-9.64.82-11.383 0-1.147-1.735-4.256-1.276-6-.588-6.666.588-9.1-.4-11.331-2.028-1.128-.824-3.151-2.975-2.908-5.256 7.93 1.818 31.622 6.384 31.622 6.384z" transform="translate(122.417 201.232)" style="fill:#56548c;fill-rule:evenodd"/>
                    <path data-name="Path 2159" d="M372.235 353.692s-7.282 2.051-11.59 2.666-7.384-.1-8.409 1.437 1.23 5.537 5.024 6.871 11.59-.2 14.461.41 10.154 1.946 11.9.153 0-10.512 0-10.512z" transform="translate(122.423 198.769)" style="fill:#878cf0;fill-rule:evenodd"/>
                    <path data-name="Path 2160" d="m394.65 356.118-13.028-14.588c-5.195-1.486-10.659-1.795-9.964 3 .615 4.256 7.39 6.116 12.048 10.253L388 358.6c3.088 2.741 7.031.345 6.65-2.479" transform="translate(140.373 186.749)" style="fill:#878cf0;fill-rule:evenodd"/>
                    <path data-name="Path 2161" d="m388 356.726-4.294-3.812c-4.658-4.137-11.433-6-12.048-10.253V342.626a4.587 4.587 0 0 0 .008 1.439c.615 4.256 7.39 6.116 12.048 10.253l4.286 3.791c3.641 3.231 7.483.925 6.65-3.861.381 2.823-3.563 5.219-6.65 2.478" transform="translate(140.373 188.619)" style="fill:#56548c;fill-rule:evenodd"/>
                    <path data-name="Path 2162" d="M395.014 298.826c4.5 6.369-6.75 24-3.674 45.945 2.086 14.885 6.154 39.869 5.181 53.97-.176 2.57-10.219 4.407-12.94-8.026-4.63-21.14-10.429-34.332-12.469-50.733l1.082-47.573z" transform="translate(139.929 142.67)" style="fill:#112b46;fill-rule:evenodd"/>
                    <path data-name="Path 2163" d="M391.586 294.55c1.243 19.767-12.919 43.953-11.983 59.91.967 16.457-.824 36.469-.87 54.281 0 0-14.548 6.89-15.2-3.76-2.138-34.891-8.819-45.761.2-109.6z" transform="translate(128.971 144.63)" style="fill:#112b46;fill-rule:evenodd"/>
                    <path data-name="Path 2164" d="M392.394 234.676c.655-3.27.345-8.675-1.075-11.663a26.327 26.327 0 0 0-4.519-7.313 13.2 13.2 0 0 0-6.612-3.656 1.363 1.363 0 0 0-.632-.033c-.747.19-.718 1.253-.519 2 1.13 4.21 2.739 8.541 3.143 12.885a14.88 14.88 0 0 1-2.015-3.532c-.77-1.992-1.831-.747-1.831-.747-.234 1.278 1.377 7.087 2.471 8.713s4.708 5.714 4.708 5.714c.171.8.264 1.316.264 1.316s6.165-1.441 6.617-3.684z" transform="translate(146.523 69.052)" style="fill:#ffc8af;fill-rule:evenodd"/>
                    <path data-name="Path 2165" d="M380.1 286.993s9.144-23.2 9.776-30.526-4.947-27.3-4.947-27.3 4.84-7.2 8.129-7.874c7.983 16.8 10.138 30.488 10.138 39.475s-9.753 41.982-9.635 41.741-21.485 2.252-13.461-15.516z" transform="translate(146.523 77.572)" style="fill:#ec827d"/>
                    <path data-name="Path 2166" d="M364.594 310.233a203.358 203.358 0 0 1 3.045-37.812 26.01 26.01 0 0 1 6.212-6.332l8.562-4.834c3.308-.812 2.67-2.521 5.9-3.522a27.385 27.385 0 0 1 16.042-.019c6.867 2.91 8.183 7.539 5.128 16.405.075.4-1.7 23.41-2.486 30.861-.073.734.864 27.563 2.021 35.623 0 0-5.018 4.587-6.405 5.744-13.316 7.388-41.449.178-42.706-6.566-.473-2.522 1.509-18.933 4.687-29.548z" transform="translate(129.605 109.818)" style="fill:#ec827d;fill-rule:evenodd"/>
                    <g data-name="Group 2147">
                        <path data-name="Path 2167" d="M369.8 243s-1.818 6.706-2.159 8.07a12.941 12.941 0 0 0 0 4.206c.113.908-1.479 3.409-1.251 4.545s1.251 7.957 3.409 9.887 6.137 1.251 6.137 1.251-.341 6.024 0 6.819 9.661.115 13.525-2.159 2.5-8.41 2.5-8.41L382.074 243z" transform="translate(135.587 97.442)" style="fill:#ffc8af"/>
                        <path data-name="Path 2168" d="M368.377 248.226s-1.023-4.773 0-8.183 10.228-3.068 13.467-2.046 14.662 4.773 15.344 7.5a10.916 10.916 0 0 1 0 5.114s2.216 3.752 1.875 5.968-8.524 15.854-8.524 15.854-5.193.682-7.029-.852-3.542-7.5-5.928-8.183-3.239 3.75-3.239 3.75l-1.534-1.193s.852-4.944-.17-6.648a15.109 15.109 0 0 0-2.557-3.069l1.364-5.285z" transform="translate(137.01 92.217)" style="fill:#606bf1"/>
                    </g>
                    <path data-name="Path 2169" d="M351.227 287.153c-3.044 1.366-8.386 2.262-11.613 1.542a26.271 26.271 0 0 1-8.129-2.781 13.189 13.189 0 0 1-5.034-5.633 1.4 1.4 0 0 1-.172-.611c.021-.77 1.063-.979 1.833-.948 4.356.167 8.937.776 13.26.2a14.9 14.9 0 0 0-3.89-1.182c-2.113-.308-1.134-1.62-1.134-1.62 1.193-.509 7.217-.228 9.043.477l6.511 2.526.107.8c.824-.011 1.341-.034 1.341-.034s-.039 6.328-2.123 7.264z" transform="translate(98.888 127.525)" style="fill:#ffc8af;fill-rule:evenodd"/>
                    <path data-name="Path 2170" d="M403.371 277.8c3.946-5.472-.151-15.39-6.9-15.543-2.4-.056-4.478 0-6.281 1.5-4.463 3.695-10.65 19.552-16.4 28.427-13.285 1.157-33.705-1.481-33.705-1.481-3.369 5.7-.488 9.916-.488 9.916 38.381 8.976 41.5 5.421 42.645 5.246s21.085-28.004 21.129-28.065z" transform="translate(110.029 115.057)" style="fill:#ec827d"/>
                </g>
                <g data-name="Group 2149" transform="translate(519.224 254.566)">
                    <path data-name="Path 2171" d="M391.1 206.025a7.858 7.858 0 1 0-13.862 5.064l6 7.187 6.037-7.187-.019-.017a7.823 7.823 0 0 0 1.844-5.047z" transform="translate(-375.384 -198.166)" style="fill:#ec827d;fill-rule:evenodd"/>
                    <circle data-name="Ellipse 334" cx="4.151" cy="4.151" r="4.151" transform="translate(3.706 3.707)" style="fill:#d16565"/>
                </g>
                <g data-name="Group 2150">
                    <path data-name="Path 2172" d="M364.695 205.057a7.858 7.858 0 1 0-13.862 5.064l6 7.187 6.037-7.187-.021-.017a7.814 7.814 0 0 0 1.846-5.047z" transform="translate(119.668 55.514)" style="fill:#ec827d;fill-rule:evenodd"/>
                    <path data-name="Path 2173" d="M359.217 203.286a4.152 4.152 0 1 1-4.153-4.153 4.152 4.152 0 0 1 4.153 4.153z" transform="translate(121.439 57.285)" style="fill:#d16565;fill-rule:evenodd"/>
                </g>
                <g data-name="Group 2151">
                    <path data-name="Path 2174" d="M414.865 283.621c-.328-28.43-40.775-67.928-75.931-74.145-14.479-2.559-33.728-.356-43.2 24.682l-1.119-.324c6.759-33.077 34.623-50.207 59.238-52.511 23.634-2.212 43.637 8.813 52.6 28.861 4.2-15.272 13.5-23.929 25.211-23.238 12.895.76 24.352 12.544 26.082 26.825l-1.159.14c-1.664-13.739-12.642-25.071-24.994-25.8-11.628-.684-20.56 8.064-24.435 24.012l-.427 1.751-.682-1.666c-8.4-20.554-28.361-31.939-52.089-29.723-22.477 2.1-47.709 16.787-56.493 44.93 10.408-19.821 28.074-21.493 41.664-19.087 35.6 6.294 76.561 46.4 76.894 75.279z" transform="translate(69.908 40.726)" style="fill:#fbd15b"/>
                </g>
                <g data-name="Group 2152">
                    <path data-name="Path 2175" d="M306.532 215.584a7.858 7.858 0 1 0-13.862 5.064l6 7.185 6.037-7.185-.019-.017a7.822 7.822 0 0 0 1.844-5.047z" transform="translate(66.426 65.151)" style="fill:#ec827d;fill-rule:evenodd"/>
                    <path data-name="Path 2176" d="M301.054 213.813a4.152 4.152 0 1 1-4.153-4.153 4.152 4.152 0 0 1 4.153 4.153z" transform="translate(68.197 66.922)" style="fill:#d16565;fill-rule:evenodd"/>
                </g>
                <g data-name="Group 2153">
                    <path data-name="Path 2177" d="M369.316 242.451a7.858 7.858 0 1 0-13.86 5.064l6.007 7.187 6.035-7.187-.019-.017a7.822 7.822 0 0 0 1.837-5.047z" transform="translate(123.898 89.747)" style="fill:#ec827d;fill-rule:evenodd"/>
                    <path data-name="Path 2178" d="M363.838 240.68a4.152 4.152 0 1 1-4.151-4.151 4.152 4.152 0 0 1 4.151 4.151z" transform="translate(125.669 91.518)" style="fill:#d16565;fill-rule:evenodd"/>
                </g>
            </g>
            <g data-name="Group 2155">
                <path data-name="Path 2179" d="M460.662 201.928c0 11.523-8.139 16.164-18.181 10.366S424.3 192.457 424.3 180.936s8.141-16.164 18.181-10.366 18.181 19.837 18.181 31.358z" transform="translate(188.617 28.853)" style="fill:#bee1f4;fill-rule:evenodd"/>
                <path data-name="Path 2180" d="M454.9 197.284c0 9.05-6.394 12.7-14.281 8.142s-14.281-15.584-14.281-24.634 6.394-12.7 14.281-8.142 14.281 15.581 14.281 24.634z" transform="translate(190.481 31.247)" style="fill:#ec827d;fill-rule:evenodd"/>
                <text data-name="$" transform="translate(625.215 227.258)" style="font-size:21px;font-family:Roboto-Bold,Roboto;font-weight:700;fill:#d16565"><tspan x="0" y="0">$</tspan></text>
            </g>
            <path data-name="Path 2181" d="m471.172 399.882-74.3-42.9a11.645 11.645 0 0 1-5.823-10.085v-73.15a5.861 5.861 0 0 1 8.79-5.076l74.3 42.9a11.645 11.645 0 0 1 5.823 10.085v73.153a5.86 5.86 0 0 1-8.79 5.073z" transform="translate(158.181 120.215)" style="fill-rule:evenodd;fill:#3581d8"/>
            <g data-name="Group 2156">
                <path data-name="Path 2182" d="m419.743 333.719-10.852-6.265v-29.522l10.852 6.265z" transform="translate(174.512 147.727)" style="fill:#ec827d;fill-rule:evenodd"/>
                <path data-name="Path 2183" d="m410.82 333.9-10.852-6.265v-40.679l10.852 6.265z" transform="translate(166.345 137.678)" style="fill:#606bf1;fill-rule:evenodd"/>
                <path data-name="Path 2184" d="m428.665 353.322-10.852-6.265V287.3l10.852 6.265z" transform="translate(182.679 137.99)" style="fill:#fbd15b;fill-rule:evenodd"/>
            </g>
            <path data-name="Path 2185" d="M363.775 417.663 310.659 387a8.324 8.324 0 0 1-4.164-7.21v-52.3a4.189 4.189 0 0 1 6.284-3.628l53.121 30.666a8.322 8.322 0 0 1 4.162 7.21v52.3a4.189 4.189 0 0 1-6.287 3.625z" transform="translate(80.778 170.942)" style="fill-rule:evenodd;fill:#3581d8"/>
        </g>
    </g>
</svg>
